<?xml version="1.0" encoding="UTF-8"?>
<svg xmlns="http://www.w3.org/2000/svg" width="1601" height="489" viewBox="0 0 1601 489" fill="none">
  <g clip-path="url(#clip0_635_47758)">
    <g clip-path="url(#clip1_635_47758)">
      <path d="M998.032 691.043L997.5 690.51L1000.16 687.855L1000.69 688.387L998.032 691.043ZM1003.35 685.725L1002.82 685.192L1005.47 682.538L1006 683.07L1003.35 685.725ZM1008.67 680.407L1008.13 679.875L1010.79 677.22L1011.32 677.753L1008.66 680.407H1008.67ZM1013.99 675.09L1013.45 674.558L1016.11 671.903L1016.64 672.435L1013.99 675.09ZM1019.3 669.773L1018.77 669.24L1021.42 666.585L1021.96 667.118L1019.3 669.78V669.773ZM1024.62 664.455L1024.09 663.923L1026.74 661.267L1027.28 661.8L1024.62 664.455ZM1029.94 659.138L1029.41 658.605L1032.06 655.95L1032.59 656.483L1029.94 659.145V659.138ZM1035.25 653.82L1034.72 653.288L1037.38 650.633L1037.91 651.165L1035.25 653.82ZM1040.57 648.503L1040.04 647.97L1042.7 645.315L1043.23 645.848L1040.57 648.503ZM1045.89 643.185L1045.36 642.653L1048.01 639.99L1048.54 640.523L1045.89 643.177V643.185ZM1051.21 637.868L1050.67 637.335L1053.33 634.68L1053.86 635.212L1051.21 637.868ZM1056.53 632.55L1055.99 632.017L1058.65 629.363L1059.18 629.895L1056.53 632.55ZM1061.84 627.233L1061.31 626.7L1063.96 624.045L1064.5 624.578L1061.84 627.233ZM1067.16 621.915L1066.63 621.383L1069.28 618.728L1069.82 619.26L1067.16 621.915ZM1072.48 616.598L1071.95 616.065L1074.6 613.41L1075.13 613.943L1072.48 616.598ZM1077.79 611.28L1077.26 610.747L1079.92 608.093L1080.45 608.625L1077.79 611.28ZM1083.11 605.962L1082.58 605.43L1085.24 602.775L1085.78 603.308L1083.12 605.97L1083.11 605.962ZM1767.28 605.52L1764.62 602.865L1765.15 602.333L1767.81 604.988L1767.28 605.52ZM1088.43 600.645L1087.9 600.113L1090.55 597.458L1091.08 597.99L1088.43 600.645ZM1761.96 600.203L1759.31 597.548L1759.84 597.015L1762.49 599.67L1761.96 600.203ZM1093.75 595.328L1093.21 594.795L1095.87 592.14L1096.4 592.673L1093.75 595.328ZM1756.65 594.885L1753.99 592.223L1754.53 591.69L1757.18 594.345L1756.65 594.878V594.885ZM1099.07 590.01L1098.53 589.478L1101.19 586.823L1101.72 587.355L1099.07 590.01ZM1751.33 589.568L1748.68 586.913L1749.21 586.38L1751.86 589.035L1751.33 589.568ZM1104.38 584.693L1103.85 584.16L1106.5 581.505L1107.04 582.038L1104.38 584.693ZM1746.01 584.25L1743.36 581.595L1743.89 581.063L1746.55 583.718L1746.01 584.25ZM1109.7 579.375L1109.17 578.843L1111.82 576.188L1112.36 576.72L1109.7 579.383V579.375ZM1740.7 578.933L1738.04 576.278L1738.58 575.745L1741.23 578.4L1740.7 578.933ZM1115.02 574.058L1114.49 573.525L1117.14 570.863L1117.67 571.395L1115.02 574.05V574.058ZM1735.38 573.615L1732.72 570.96L1733.26 570.427L1735.91 573.083L1735.38 573.615ZM1120.33 568.74L1119.8 568.208L1122.46 565.552L1122.99 566.085L1120.33 568.74ZM1730.06 568.298L1727.41 565.642L1727.94 565.11L1730.6 567.765L1730.06 568.298ZM1125.65 563.423L1125.12 562.89L1127.78 560.228L1128.31 560.76L1125.65 563.415V563.423ZM1724.74 562.98L1722.09 560.325L1722.62 559.793L1725.28 562.455L1724.74 562.988V562.98ZM1130.96 558.105L1130.43 557.573L1133.08 554.918L1133.62 555.45L1130.96 558.105ZM1719.43 557.663L1716.77 555.008L1717.31 554.475L1719.96 557.13L1719.43 557.663ZM1136.28 552.788L1135.75 552.255L1138.4 549.6L1138.94 550.133L1136.28 552.788ZM1714.11 552.345L1711.46 549.69L1711.99 549.158L1714.64 551.813L1714.11 552.345ZM1141.6 547.47L1141.07 546.938L1143.72 544.283L1144.25 544.815L1141.6 547.47ZM1708.79 547.028L1706.14 544.372L1706.67 543.84L1709.33 546.495L1708.79 547.028ZM1146.92 542.153L1146.38 541.62L1149.04 538.965L1149.57 539.497L1146.92 542.153ZM1703.47 541.71L1700.82 539.055L1701.35 538.523L1704.01 541.177L1703.47 541.71ZM1152.23 536.835L1151.7 536.302L1154.36 533.648L1154.89 534.18L1152.23 536.835ZM1698.16 536.392L1695.5 533.738L1696.03 533.205L1698.69 535.86L1698.16 536.392ZM1157.55 531.517L1157.02 530.985L1159.67 528.33L1160.21 528.863L1157.55 531.517ZM1692.84 531.075L1690.18 528.42L1690.72 527.888L1693.37 530.543L1692.84 531.075ZM1162.86 526.2L1162.33 525.668L1164.99 523.013L1165.52 523.545L1162.87 526.208L1162.86 526.2ZM1687.52 525.758L1684.87 523.095L1685.4 522.563L1688.06 525.218L1687.52 525.75V525.758ZM1168.18 520.883L1167.65 520.35L1170.3 517.688L1170.83 518.22L1168.18 520.875V520.883ZM1682.21 520.44L1679.55 517.785L1680.08 517.253L1682.74 519.908L1682.21 520.44ZM1173.49 515.565L1172.96 515.033L1175.62 512.378L1176.15 512.91L1173.49 515.565ZM1676.89 515.122L1674.23 512.46L1674.76 511.927L1677.42 514.583L1676.89 515.115V515.122ZM1178.81 510.247L1178.28 509.715L1180.94 507.052L1181.47 507.585L1178.8 510.24L1178.81 510.247ZM1671.57 509.805L1668.91 507.15L1669.44 506.618L1672.1 509.273L1671.56 509.805H1671.57ZM1184.13 504.93L1183.6 504.398L1186.25 501.743L1186.79 502.275L1184.13 504.93ZM1666.25 504.488L1663.6 501.833L1664.13 501.3L1666.78 503.955L1666.25 504.488ZM1189.45 499.613L1188.92 499.08L1191.57 496.425L1192.1 496.958L1189.45 499.613ZM1660.93 499.17L1658.28 496.515L1658.81 495.983L1661.47 498.638L1660.93 499.17ZM1194.76 494.295L1194.22 493.763L1196.88 491.108L1197.41 491.64L1194.76 494.295ZM1655.62 493.853L1652.96 491.198L1653.49 490.665L1656.15 493.32L1655.62 493.853ZM1200.07 488.978L1199.54 488.445L1202.2 485.79L1202.73 486.323L1200.07 488.978ZM1650.3 488.535L1647.65 485.88L1648.18 485.348L1650.83 488.003L1650.3 488.535ZM1205.39 483.66L1204.86 483.128L1207.52 480.473L1208.05 481.005L1205.38 483.66H1205.39ZM1644.98 483.218L1642.33 480.563L1642.86 480.03L1645.51 482.685L1644.98 483.218ZM1210.71 478.343L1210.18 477.81L1212.83 475.155L1213.37 475.688L1210.71 478.343ZM1639.67 477.9L1637.01 475.245L1637.54 474.712L1640.2 477.368L1639.67 477.9ZM1216.03 473.025L1215.49 472.493L1218.15 469.837L1218.68 470.37L1216.03 473.032V473.025ZM1634.35 472.583L1631.69 469.92L1632.22 469.387L1634.88 472.043L1634.35 472.575V472.583ZM1221.35 467.708L1220.81 467.175L1223.47 464.52L1224 465.052L1221.35 467.708ZM1629.03 467.265L1626.38 464.61L1626.91 464.078L1629.56 466.733L1629.03 467.265ZM1226.65 462.39L1226.12 461.858L1228.78 459.203L1229.31 459.735L1226.65 462.398V462.39ZM1623.71 461.948L1621.06 459.285L1621.59 458.753L1624.24 461.407L1623.71 461.94V461.948ZM1231.97 457.073L1231.44 456.54L1234.1 453.878L1234.63 454.41L1231.97 457.065V457.073ZM1618.4 456.63L1615.74 453.975L1616.27 453.442L1618.93 456.105L1618.4 456.637V456.63ZM1237.29 451.755L1236.76 451.223L1239.41 448.567L1239.95 449.1L1237.29 451.755ZM1613.08 451.313L1610.42 448.657L1610.96 448.125L1613.61 450.78L1613.08 451.313ZM1242.61 446.438L1242.07 445.905L1244.73 443.25L1245.26 443.782L1242.61 446.438ZM1607.76 445.995L1605.1 443.34L1605.64 442.808L1608.29 445.462L1607.76 445.995ZM1247.93 441.12L1247.39 440.587L1250.05 437.933L1250.58 438.465L1247.93 441.12ZM1602.44 440.677L1599.79 438.023L1600.32 437.49L1602.97 440.145L1602.44 440.677ZM1253.24 435.802L1252.71 435.27L1255.36 432.615L1255.9 433.148L1253.24 435.802ZM1597.13 435.36L1594.47 432.705L1595 432.173L1597.66 434.828L1597.13 435.36ZM1258.55 430.485L1258.02 429.953L1260.68 427.298L1261.21 427.83L1258.55 430.485ZM1591.81 430.043L1589.15 427.387L1589.68 426.855L1592.34 429.517L1591.81 430.05V430.043ZM1263.87 425.168L1263.34 424.635L1265.99 421.98L1266.53 422.512L1263.87 425.168ZM1586.49 424.725L1583.83 422.07L1584.37 421.538L1587.02 424.193L1586.49 424.725ZM1269.19 419.85L1268.65 419.318L1271.31 416.663L1271.84 417.195L1269.19 419.858V419.85ZM1581.17 419.408L1578.52 416.753L1579.05 416.22L1581.71 418.875L1581.17 419.408ZM1274.51 414.533L1273.97 414L1276.63 411.345L1277.16 411.878L1274.51 414.533ZM1575.85 414.09L1573.2 411.435L1573.73 410.903L1576.39 413.557L1575.85 414.09ZM1279.82 409.215L1279.29 408.682L1281.95 406.028L1282.48 406.56L1279.82 409.223V409.215ZM1570.54 408.773L1567.88 406.11L1568.42 405.578L1571.07 408.233L1570.54 408.765V408.773ZM1285.14 403.898L1284.61 403.365L1287.26 400.703L1287.79 401.235L1285.14 403.89V403.898ZM1565.22 403.455L1562.57 400.8L1563.1 400.268L1565.75 402.923L1565.22 403.455ZM1290.45 398.58L1289.92 398.048L1292.57 395.393L1293.11 395.925L1290.45 398.58ZM1559.9 398.137L1557.25 395.483L1557.78 394.95L1560.43 397.605L1559.9 398.137ZM1295.77 393.262L1295.23 392.73L1297.89 390.075L1298.42 390.608L1295.77 393.262ZM1554.59 392.82L1551.93 390.165L1552.46 389.633L1555.12 392.288L1554.59 392.82ZM1301.09 387.945L1300.55 387.413L1303.21 384.758L1303.74 385.29L1301.09 387.945ZM1549.27 387.503L1546.61 384.848L1547.15 384.315L1549.8 386.97L1549.27 387.503ZM1306.4 382.628L1305.87 382.095L1308.53 379.44L1309.06 379.973L1306.4 382.628ZM1543.95 382.185L1541.29 379.523L1541.83 378.99L1544.48 381.645L1543.95 382.178V382.185ZM1311.72 377.31L1311.19 376.778L1313.84 374.123L1314.38 374.655L1311.72 377.31ZM1538.63 376.868L1535.98 374.213L1536.51 373.68L1539.17 376.342L1538.63 376.875V376.868ZM1317.04 371.993L1316.51 371.46L1319.16 368.805L1319.69 369.338L1317.04 371.993ZM1533.32 371.55L1530.66 368.895L1531.19 368.363L1533.85 371.018L1533.32 371.55ZM1322.35 366.675L1321.82 366.143L1324.47 363.488L1325 364.02L1322.35 366.682V366.675ZM1528 366.233L1525.34 363.578L1525.88 363.045L1528.53 365.708L1528 366.24V366.233ZM1327.67 361.358L1327.13 360.825L1329.79 358.17L1330.32 358.703L1327.67 361.358ZM1522.68 360.915L1520.03 358.26L1520.56 357.727L1523.21 360.383L1522.68 360.915ZM1332.98 356.04L1332.45 355.508L1335.11 352.852L1335.64 353.385L1332.98 356.04ZM1517.36 355.598L1514.71 352.943L1515.24 352.41L1517.9 355.065L1517.36 355.598ZM1338.3 350.723L1337.77 350.19L1340.42 347.528L1340.96 348.06L1338.29 350.715L1338.3 350.723ZM1512.04 350.28L1509.39 347.625L1509.92 347.092L1512.58 349.748L1512.04 350.28ZM1343.62 345.405L1343.09 344.873L1345.74 342.217L1346.27 342.75L1343.62 345.405ZM1506.73 344.963L1504.07 342.307L1504.61 341.775L1507.26 344.43L1506.73 344.963ZM1348.93 340.088L1348.4 339.555L1351.06 336.9L1351.59 337.432L1348.93 340.088ZM1501.41 339.645L1498.75 336.99L1499.28 336.458L1501.93 339.113L1501.4 339.645H1501.41ZM1354.24 334.77L1353.71 334.238L1356.37 331.583L1356.9 332.115L1354.24 334.77ZM1496.09 334.328L1493.44 331.672L1493.97 331.14L1496.62 333.795L1496.09 334.328ZM1359.56 329.453L1359.03 328.92L1361.68 326.265L1362.22 326.797L1359.56 329.453ZM1490.78 329.01L1488.12 326.348L1488.65 325.815L1491.31 328.47L1490.78 329.002V329.01ZM1364.88 324.135L1364.35 323.602L1367 320.948L1367.54 321.48L1364.88 324.135ZM1485.46 323.693L1482.8 321.038L1483.34 320.505L1485.99 323.16L1485.46 323.693ZM1370.2 318.818L1369.67 318.285L1372.33 315.623L1372.85 316.155L1370.2 318.81V318.818ZM1480.14 318.375L1478.16 316.395C1477.93 316.17 1477.71 315.945 1477.48 315.727L1478.01 315.195C1478.24 315.42 1478.47 315.645 1478.69 315.87L1480.67 317.85L1480.14 318.383V318.375ZM1375.57 313.598L1375.07 313.043C1376 312.203 1376.97 311.378 1377.95 310.59L1378.42 311.175C1377.45 311.955 1376.5 312.773 1375.57 313.605V313.598ZM1474.74 313.185C1473.81 312.36 1472.85 311.558 1471.88 310.778L1472.34 310.193C1473.32 310.973 1474.29 311.79 1475.23 312.623L1474.74 313.185ZM1381.38 308.887L1380.94 308.28C1381.94 307.545 1382.99 306.818 1384.04 306.128L1384.46 306.758C1383.41 307.44 1382.38 308.16 1381.38 308.887ZM1468.9 308.52C1467.89 307.793 1466.85 307.08 1465.81 306.413L1466.21 305.783C1467.26 306.458 1468.31 307.178 1469.33 307.913L1468.9 308.52ZM1387.64 304.778L1387.25 304.133C1388.33 303.495 1389.45 302.88 1390.56 302.303L1390.9 302.97C1389.8 303.54 1388.71 304.155 1387.64 304.785V304.778ZM1462.62 304.463C1461.55 303.84 1460.44 303.248 1459.34 302.678L1459.68 302.01C1460.8 302.58 1461.91 303.188 1463 303.81L1462.63 304.463H1462.62ZM1394.27 301.32L1393.95 300.637C1395.1 300.112 1396.26 299.61 1397.42 299.153L1397.7 299.85C1396.55 300.308 1395.4 300.803 1394.27 301.32ZM1455.96 301.065C1454.82 300.555 1453.67 300.068 1452.51 299.618L1452.78 298.92C1453.94 299.37 1455.12 299.865 1456.27 300.383L1455.96 301.065ZM1401.21 298.553L1400.97 297.84C1402.16 297.435 1403.37 297.053 1404.58 296.708L1404.79 297.428C1403.6 297.773 1402.39 298.148 1401.22 298.545L1401.21 298.553ZM1448.99 298.358C1447.81 297.968 1446.61 297.6 1445.42 297.27L1445.62 296.55C1446.82 296.888 1448.04 297.255 1449.23 297.653L1448.99 298.365V298.358ZM1408.4 296.498L1408.23 295.77C1409.45 295.485 1410.7 295.23 1411.93 295.005L1412.06 295.74C1410.84 295.958 1409.61 296.213 1408.4 296.498ZM1441.79 296.363C1440.58 296.093 1439.34 295.845 1438.12 295.635L1438.24 294.893C1439.48 295.11 1440.73 295.35 1441.95 295.627L1441.79 296.363ZM1415.76 295.17L1415.66 294.428C1416.91 294.27 1418.17 294.135 1419.42 294.038L1419.48 294.788C1418.24 294.885 1416.99 295.013 1415.76 295.178V295.17ZM1434.41 295.095C1433.18 294.945 1431.93 294.825 1430.69 294.735L1430.74 293.985C1432 294.075 1433.26 294.195 1434.5 294.345L1434.41 295.088V295.095ZM1423.21 294.585L1423.19 293.835C1424.45 293.798 1425.71 293.79 1426.97 293.82L1426.96 294.57C1425.71 294.548 1424.46 294.548 1423.21 294.585Z" fill="#461AC0"></path>
      <path d="M1012.67 825.657L1012.14 825.125L1381.73 455.533C1410.83 426.44 1410.83 379.092 1381.73 350L1322.27 290.533L1322.8 290L1382.27 349.467C1411.65 378.86 1411.65 426.672 1382.27 456.065L1012.67 825.657Z" fill="#461AC0"></path>
      <path d="M521.763 190.5L165.891 546.373L166.421 546.903L522.294 191.03L521.763 190.5Z" fill="#461AC0"></path>
      <path d="M-168.077 552.455L-168.609 551.922L212.233 171.08C226.468 156.845 245.398 149 265.528 149C285.658 149 304.588 156.838 318.823 171.08L376.791 229.048L376.258 229.58L318.291 171.613C304.198 157.52 285.456 149.758 265.521 149.758C245.586 149.758 226.851 157.52 212.751 171.613L-168.077 552.455Z" fill="#461AC0"></path>
      <path d="M497.278 86.5725C477.148 86.5725 458.218 78.735 443.983 64.4925L273.141 -106.35L273.673 -106.883L444.516 63.96C473.608 93.06 520.956 93.06 550.048 63.96L950.391 -336.375L950.923 -335.842L550.581 64.5C536.346 78.735 517.416 86.58 497.286 86.58L497.278 86.5725Z" fill="#461AC0"></path>
      <path d="M805.904 178.865C805.191 178.865 804.471 178.857 803.759 178.835L803.782 178.085C805.027 178.122 806.264 178.122 807.509 178.1L807.524 178.85C806.984 178.865 806.444 178.865 805.904 178.865ZM811.282 178.677L811.229 177.927C812.467 177.837 813.719 177.717 814.942 177.568L815.032 178.31C813.794 178.46 812.534 178.58 811.282 178.67V178.677ZM799.994 178.64C798.749 178.542 797.489 178.415 796.251 178.25L796.349 177.507C797.579 177.665 798.824 177.792 800.054 177.89L799.994 178.64ZM818.751 177.77L818.624 177.027C819.847 176.818 821.077 176.577 822.284 176.307L822.449 177.042C821.227 177.312 819.989 177.56 818.759 177.77H818.751ZM792.524 177.68C791.302 177.462 790.057 177.207 788.834 176.922L789.007 176.195C790.214 176.472 791.444 176.727 792.659 176.945L792.524 177.68ZM826.094 176.127L825.892 175.408C827.084 175.077 828.284 174.71 829.454 174.32L829.687 175.033C828.502 175.43 827.287 175.797 826.087 176.127H826.094ZM785.189 175.985C783.989 175.64 782.782 175.265 781.597 174.86L781.837 174.147C783.007 174.545 784.207 174.92 785.392 175.257L785.189 175.977V175.985ZM833.234 173.757L832.964 173.06C834.119 172.61 835.274 172.13 836.407 171.62L836.714 172.302C835.574 172.812 834.404 173.3 833.242 173.75L833.234 173.757ZM778.056 173.562C776.894 173.105 775.732 172.61 774.591 172.085L774.907 171.402C776.032 171.92 777.187 172.407 778.334 172.865L778.056 173.562ZM840.104 170.682L839.767 170.015C840.869 169.452 841.971 168.86 843.044 168.237L843.419 168.89C842.332 169.512 841.221 170.12 840.111 170.682H840.104ZM771.209 170.443C770.099 169.865 768.989 169.257 767.909 168.627L768.284 167.982C769.349 168.605 770.452 169.212 771.547 169.783L771.202 170.45L771.209 170.443ZM846.629 166.932L846.224 166.302C847.259 165.635 848.301 164.93 849.306 164.21L849.742 164.818C848.722 165.545 847.679 166.257 846.629 166.932ZM764.707 166.647C763.664 165.965 762.621 165.245 761.609 164.51L762.052 163.902C763.049 164.63 764.084 165.342 765.119 166.017L764.707 166.647ZM852.749 162.552L852.284 161.967C853.251 161.195 854.219 160.392 855.142 159.575L855.637 160.137C854.699 160.962 853.732 161.772 852.749 162.552ZM758.624 162.222C757.649 161.435 756.689 160.617 755.752 159.785L756.254 159.222C757.177 160.047 758.137 160.857 759.097 161.637L758.624 162.222ZM858.404 157.58L857.879 157.04C858.142 156.785 858.404 156.53 858.659 156.267L860.527 154.4L861.059 154.932L859.192 156.8C858.929 157.062 858.667 157.325 858.404 157.58ZM753.007 157.212L750.352 154.565L750.884 154.033L753.532 156.68L753.007 157.212ZM863.707 152.285L863.174 151.752L865.822 149.105L866.354 149.637L863.707 152.285ZM747.704 151.91L745.057 149.262L745.589 148.73L748.237 151.377L747.704 151.91ZM869.009 146.982L868.477 146.45L871.124 143.802L871.657 144.335L869.009 146.982ZM742.409 146.607L739.762 143.96L740.294 143.427L742.942 146.075L742.409 146.607ZM874.312 141.68L873.779 141.147L876.427 138.5L876.959 139.033L874.312 141.68ZM737.107 141.305L734.459 138.658L734.992 138.125L737.639 140.772L737.107 141.305ZM879.607 136.377L879.074 135.845L881.721 133.197L882.254 133.73L879.607 136.377ZM731.804 136.002L729.157 133.355L729.689 132.822L732.337 135.47L731.804 136.002ZM884.902 131.075L884.369 130.542L887.017 127.895L887.549 128.427L884.902 131.075ZM726.502 130.7L723.854 128.052L724.387 127.52L727.034 130.167L726.502 130.7ZM890.197 125.772L889.664 125.24L892.312 122.592L892.844 123.125L890.197 125.772ZM721.199 125.397L718.552 122.75L719.084 122.217L721.732 124.865L721.199 125.397ZM895.492 120.47L894.959 119.937L897.607 117.29L898.139 117.823L895.492 120.47ZM715.897 120.095L713.249 117.448L713.782 116.915L716.429 119.562L715.897 120.095ZM900.786 115.167L900.254 114.635L902.902 111.987L903.434 112.52L900.786 115.167ZM710.594 114.792L707.947 112.145L708.479 111.612L711.127 114.26L710.594 114.792ZM906.082 109.865L905.549 109.332L908.197 106.685L908.729 107.217L906.082 109.865ZM705.292 109.49L702.644 106.842L703.177 106.31L705.824 108.957L705.292 109.49ZM911.376 104.562L910.844 104.03L913.492 101.382L914.024 101.915L911.376 104.562ZM699.989 104.187L697.342 101.54L697.874 101.007L700.522 103.655L699.989 104.187ZM916.672 99.26L916.139 98.7275L918.786 96.08L919.319 96.6125L916.672 99.26ZM694.687 98.885L692.039 96.2375L692.572 95.705L695.219 98.3525L694.687 98.885ZM921.966 93.9575L921.434 93.425L924.082 90.7775L924.614 91.31L921.966 93.9575ZM689.384 93.5825L686.737 90.935L687.269 90.4025L689.917 93.05L689.384 93.5825ZM927.262 88.655L926.729 88.1225L929.376 85.475L929.909 86.0075L927.262 88.655ZM684.082 88.28L681.434 85.6325L681.967 85.1L684.614 87.7475L684.082 88.28ZM932.556 83.3525L932.024 82.82L934.672 80.1725L935.204 80.705L932.556 83.3525ZM678.779 82.9775L676.132 80.33L676.664 79.7975L679.312 82.445L678.779 82.9775ZM937.859 78.05L937.326 77.5175L939.974 74.87L940.506 75.4025L937.859 78.05ZM673.484 77.675L670.837 75.0275L671.369 74.495L674.017 77.1425L673.484 77.675ZM943.161 72.7475L942.629 72.215L945.277 69.5675L945.809 70.1L943.161 72.7475ZM668.189 72.3725L665.542 69.725L666.074 69.1925L668.722 71.84L668.189 72.3725ZM948.464 67.445L947.931 66.9125L950.579 64.265L951.111 64.7975L948.464 67.445ZM662.894 67.07L660.247 64.4225L660.779 63.89L663.427 66.5375L662.894 67.07ZM953.767 62.1425L953.234 61.61L955.881 58.9625L956.414 59.495L953.767 62.1425ZM657.599 61.7675L654.952 59.12L655.484 58.5875L658.132 61.235L657.599 61.7675ZM959.069 56.84L958.536 56.3075L961.184 53.66L961.716 54.1925L959.069 56.84ZM652.304 56.465L649.657 53.8175L650.189 53.285L652.837 55.9325L652.304 56.465ZM964.372 51.5375L963.839 51.005L966.486 48.3575L967.019 48.89L964.372 51.5375ZM647.009 51.1625L644.362 48.515L644.894 47.9825L647.542 50.63L647.009 51.1625ZM969.674 46.235L969.142 45.7025L971.789 43.055L972.322 43.5875L969.674 46.235ZM641.714 45.86L639.067 43.2125L639.599 42.68L642.247 45.3275L641.714 45.86ZM974.977 40.9325L974.444 40.4L977.091 37.7525L977.624 38.285L974.977 40.9325ZM636.419 40.5575L633.772 37.91L634.304 37.3775L636.952 40.025L636.419 40.5575ZM980.279 35.63L979.747 35.0975L982.394 32.45L982.927 32.9825L980.279 35.63ZM631.124 35.255L628.477 32.6075L629.009 32.075L631.657 34.7225L631.124 35.255ZM985.582 30.3275L985.049 29.795L987.697 27.1475L988.229 27.68L985.582 30.3275ZM625.829 29.9525L623.182 27.305L623.714 26.7725L626.362 29.42L625.829 29.9525ZM990.884 25.025L990.352 24.4925L992.999 21.845L993.532 22.3775L990.884 25.025ZM620.534 24.65L617.887 22.0025L618.419 21.47L621.067 24.1175L620.534 24.65ZM996.187 19.7225L995.654 19.19L998.302 16.5425L998.834 17.075L996.187 19.7225ZM615.232 19.3475L612.584 16.7L613.117 16.1675L615.764 18.815L615.232 19.3475ZM1001.48 14.42L1000.95 13.8875L1003.6 11.24L1004.13 11.7725L1001.48 14.42ZM609.929 14.045L607.282 11.3975L607.814 10.865L610.462 13.5125L609.929 14.045ZM1006.78 9.11749L1006.24 8.58499L1008.89 5.93748L1009.42 6.46999L1006.78 9.11749ZM604.627 8.74249L601.979 6.09499L602.512 5.56248L605.159 8.20999L604.627 8.74249ZM1012.07 3.81499L1011.54 3.28249L1014.19 0.634979L1014.72 1.16748L1012.07 3.81499ZM599.324 3.43999L596.677 0.79248L597.209 0.259979L599.857 2.90749L599.324 3.43999ZM1017.37 -1.4875L1016.83 -2.02002L1019.48 -4.66751L1020.01 -4.13503L1017.37 -1.4875ZM594.022 -1.8625L591.374 -4.51003L591.907 -5.04251L594.554 -2.39502L594.022 -1.8625ZM1022.66 -6.79001L1022.13 -7.32253L1024.78 -9.97002L1025.31 -9.43752L1022.66 -6.79001ZM588.719 -7.16501L586.072 -9.81252L586.604 -10.345L589.252 -7.69753L588.719 -7.16501ZM1027.96 -12.0925L1027.42 -12.625L1030.07 -15.2725L1030.6 -14.74L1027.96 -12.0925ZM583.417 -12.4675L580.769 -15.115L581.302 -15.6475L583.949 -13L583.417 -12.4675ZM1033.25 -17.395L1032.72 -17.9275L1035.37 -20.575L1035.9 -20.0425L1033.25 -17.395ZM578.114 -17.77L575.467 -20.4175L575.999 -20.95L578.647 -18.3025L578.114 -17.77ZM1038.55 -22.6975L1038.01 -23.23L1040.66 -25.8775L1041.19 -25.345L1038.55 -22.6975ZM572.812 -23.0725L570.164 -25.72L570.697 -26.2525L573.344 -23.605L572.812 -23.0725ZM1043.84 -28L1043.31 -28.5325L1045.96 -31.18L1046.49 -30.6475L1043.84 -28ZM567.509 -28.375L564.862 -31.0225L565.394 -31.555L568.042 -28.9075L567.509 -28.375ZM1049.14 -33.3025L1048.6 -33.835L1051.25 -36.4825L1051.78 -35.95L1049.14 -33.3025ZM562.207 -33.6775L559.559 -36.325L560.092 -36.8575L562.739 -34.21L562.207 -33.6775ZM1054.44 -38.605L1053.91 -39.1375L1056.55 -41.785L1057.09 -41.2525L1054.44 -38.605ZM556.912 -38.98L554.264 -41.6275L554.797 -42.16L557.444 -39.5125L556.912 -38.98ZM1059.73 -43.9075L1059.2 -44.44L1061.85 -47.0875L1062.38 -46.555L1059.73 -43.9075ZM551.609 -44.2825L548.962 -46.93L549.494 -47.4625L552.142 -44.815L551.609 -44.2825ZM1065.04 -49.21L1064.5 -49.7425L1067.15 -52.39L1067.68 -51.8575L1065.04 -49.21ZM546.314 -49.585L543.667 -52.2325L544.199 -52.765L546.847 -50.1175L546.314 -49.585ZM1070.34 -54.5125L1069.81 -55.045L1072.45 -57.6925L1072.99 -57.16L1070.34 -54.5125ZM541.019 -54.8875L538.372 -57.535L538.904 -58.0675L541.552 -55.42L541.019 -54.8875ZM1075.64 -59.815L1075.11 -60.3475L1077.76 -62.995L1078.29 -62.4625L1075.64 -59.815ZM535.724 -60.19L533.077 -62.8375L533.609 -63.37L536.257 -60.7225L535.724 -60.19ZM1080.94 -65.1175L1080.41 -65.65L1083.06 -68.2975L1083.59 -67.765L1080.94 -65.1175ZM530.429 -65.4925L527.782 -68.14L528.314 -68.6725L530.962 -66.025L530.429 -65.4925ZM1086.25 -70.42L1085.71 -70.9525L1088.36 -73.6L1088.89 -73.0675L1086.25 -70.42ZM525.134 -70.795L522.487 -73.4425L523.019 -73.975L525.667 -71.3275L525.134 -70.795ZM1091.55 -75.7225L1091.02 -76.255L1093.66 -78.9025L1094.2 -78.37L1091.55 -75.7225ZM519.839 -76.0975L517.192 -78.745L517.724 -79.2775L520.372 -76.63L519.839 -76.0975ZM1096.85 -81.025L1096.32 -81.5575L1098.97 -84.205L1099.5 -83.6725L1096.85 -81.025ZM514.544 -81.4L511.897 -84.0475L512.429 -84.58L515.077 -81.9325L514.544 -81.4ZM1102.15 -86.3275L1101.62 -86.86L1104.27 -89.5075L1104.8 -88.975L1102.15 -86.3275ZM509.249 -86.7025L506.602 -89.35L507.134 -89.8825L509.782 -87.235L509.249 -86.7025ZM1107.46 -91.63L1106.92 -92.1625L1109.57 -94.81L1110.1 -94.2775L1107.46 -91.63ZM1112.76 -96.925L1112.23 -97.4575L1114.87 -100.105L1115.41 -99.5725L1112.76 -96.925ZM1118.06 -102.228L1117.53 -102.76L1120.18 -105.408L1120.71 -104.875L1118.06 -102.228ZM1123.36 -107.523L1122.83 -108.055L1125.48 -110.703L1126.01 -110.17L1123.36 -107.523ZM1128.67 -112.825L1128.13 -113.358L1130.78 -116.005L1131.31 -115.473L1128.67 -112.825ZM1133.96 -118.12L1133.43 -118.653L1136.08 -121.3L1136.61 -120.768L1133.96 -118.12ZM1139.26 -123.423L1138.73 -123.955L1141.38 -126.603L1141.91 -126.07L1139.26 -123.423ZM1144.57 -128.725L1144.03 -129.258L1146.68 -131.905L1147.21 -131.373L1144.57 -128.725ZM1149.87 -134.02L1149.34 -134.553L1151.98 -137.2L1152.52 -136.668L1149.87 -134.02ZM1155.16 -139.323L1154.63 -139.855L1157.28 -142.503L1157.81 -141.97L1155.16 -139.323ZM1160.47 -144.618L1159.93 -145.15L1162.58 -147.798L1163.11 -147.265L1160.47 -144.618ZM1165.77 -149.92L1165.24 -150.453L1167.88 -153.1L1168.42 -152.568L1165.77 -149.92ZM1171.07 -155.223L1170.54 -155.755L1173.19 -158.403L1173.72 -157.87L1171.07 -155.223ZM1176.37 -160.518L1175.84 -161.05L1178.49 -163.698L1179.02 -163.165L1176.37 -160.518ZM1181.67 -165.82L1181.14 -166.352L1183.78 -169L1184.32 -168.468L1181.67 -165.82Z" fill="#461AC0"></path>
      <path d="M505.228 565.102L504.695 564.57L971.983 97.2825C986.075 83.19 993.838 64.4475 993.838 44.5125C993.838 24.5775 986.075 5.8425 971.983 -8.25751L705.14 -275.093L705.673 -275.625L972.515 -8.7825C986.75 5.45251 994.595 24.3825 994.595 44.5125C994.595 64.6425 986.758 83.5725 972.515 97.8075L505.228 565.095V565.102Z" fill="#461AC0"></path>
      <path d="M882.14 637.658L592.798 348.315C578.705 334.223 559.963 326.46 540.028 326.46C520.093 326.46 501.358 334.223 487.258 348.315L256.415 579.158L255.883 578.625L486.725 347.783C500.96 333.548 519.89 325.703 540.02 325.703C560.15 325.703 579.08 333.54 593.315 347.783L882.658 637.125L882.125 637.658H882.14Z" fill="#461AC0"></path>
      <path d="M522.406 200.512C527.584 200.512 531.781 196.315 531.781 191.137C531.781 185.96 527.584 181.762 522.406 181.762C517.229 181.762 513.031 185.96 513.031 191.137C513.031 196.315 517.229 200.512 522.406 200.512Z" fill="#461AC0"></path>
      <path d="M376.156 239.75C381.334 239.75 385.531 235.553 385.531 230.375C385.531 225.197 381.334 221 376.156 221C370.979 221 366.781 225.197 366.781 230.375C366.781 235.553 370.979 239.75 376.156 239.75Z" fill="#461AC0"></path>
      <path d="M1323.66 300.75C1328.83 300.75 1333.03 296.553 1333.03 291.375C1333.03 286.197 1328.83 282 1323.66 282C1318.48 282 1314.28 286.197 1314.28 291.375C1314.28 296.553 1318.48 300.75 1323.66 300.75Z" fill="#461AC0"></path>
      <path d="M606.781 14.5125C610.095 14.5125 612.781 11.8262 612.781 8.51245C612.781 5.19874 610.095 2.51245 606.781 2.51245C603.468 2.51245 600.781 5.19874 600.781 8.51245C600.781 11.8262 603.468 14.5125 606.781 14.5125Z" fill="#461AC0"></path>
      <path d="M446.281 394.762C449.595 394.762 452.281 392.076 452.281 388.762C452.281 385.449 449.595 382.762 446.281 382.762C442.968 382.762 440.281 385.449 440.281 388.762C440.281 392.076 442.968 394.762 446.281 394.762Z" fill="#461AC0"></path>
      <path d="M920.281 462C923.595 462 926.281 459.314 926.281 456C926.281 452.686 923.595 450 920.281 450C916.968 450 914.281 452.686 914.281 456C914.281 459.314 916.968 462 920.281 462Z" fill="#461AC0"></path>
      <path d="M741.031 334.762C744.345 334.762 747.031 332.076 747.031 328.762C747.031 325.449 744.345 322.762 741.031 322.762C737.718 322.762 735.031 325.449 735.031 328.762C735.031 332.076 737.718 334.762 741.031 334.762Z" fill="#461AC0"></path>
      <path d="M374.042 227.288C373.588 227.556 373.06 227.64 372.55 227.547C371.541 227.418 370.809 228.519 371.328 229.398C371.828 230.286 373.153 230.193 373.542 229.259C374.459 226.89 377.849 226.89 378.776 229.259C379.156 230.193 380.49 230.286 380.99 229.398C381.499 228.519 380.767 227.418 379.767 227.547C379.257 227.64 378.729 227.547 378.275 227.288C377.812 227.029 377.479 226.622 377.303 226.131C376.895 225.123 375.422 225.123 375.015 226.131C374.839 226.613 374.496 227.029 374.042 227.288Z" fill="#9A7AF6"></path>
      <path d="M376.154 228.565C375.144 228.565 374.551 229.74 375.172 230.554C375.506 230.943 375.691 231.443 375.691 231.97C375.691 232.488 375.506 232.988 375.172 233.386C374.542 234.2 375.144 235.384 376.154 235.375C377.164 235.375 377.757 234.2 377.136 233.386C376.802 232.997 376.617 232.497 376.617 231.97C376.617 231.452 376.802 230.952 377.136 230.554C377.766 229.74 377.164 228.556 376.154 228.565Z" fill="#9A7AF6"></path>
      <path d="M520.292 188.05C519.838 188.319 519.31 188.402 518.8 188.31C517.791 188.18 517.059 189.281 517.578 190.16C518.078 191.048 519.403 190.956 519.792 190.021C520.709 187.653 524.099 187.653 525.026 190.021C525.406 190.956 526.74 191.048 527.24 190.16C527.749 189.281 527.017 188.18 526.017 188.31C525.507 188.402 524.979 188.31 524.525 188.05C524.062 187.791 523.729 187.384 523.553 186.894C523.145 185.885 521.672 185.885 521.265 186.894C521.089 187.375 520.746 187.791 520.292 188.05Z" fill="#9A7AF6"></path>
      <path d="M522.404 189.327C521.394 189.327 520.801 190.502 521.422 191.317C521.756 191.705 521.941 192.205 521.941 192.732C521.941 193.251 521.756 193.75 521.422 194.148C520.792 194.962 521.394 196.147 522.404 196.137C523.414 196.137 524.007 194.962 523.386 194.148C523.052 193.759 522.867 193.26 522.867 192.732C522.867 192.214 523.052 191.715 523.386 191.317C524.016 190.502 523.414 189.318 522.404 189.327Z" fill="#9A7AF6"></path>
      <path d="M1321.54 288.288C1321.09 288.556 1320.56 288.64 1320.05 288.547C1319.04 288.418 1318.31 289.519 1318.83 290.398C1319.33 291.286 1320.65 291.193 1321.04 290.259C1321.96 287.89 1325.35 287.89 1326.28 290.259C1326.66 291.193 1327.99 291.286 1328.49 290.398C1329 289.519 1328.27 288.418 1327.27 288.547C1326.76 288.64 1326.23 288.547 1325.78 288.288C1325.31 288.029 1324.98 287.622 1324.8 287.131C1324.4 286.123 1322.92 286.123 1322.51 287.131C1322.34 287.613 1322 288.029 1321.54 288.288Z" fill="#9A7AF6"></path>
      <path d="M1323.65 289.565C1322.64 289.565 1322.05 290.74 1322.67 291.554C1323.01 291.943 1323.19 292.443 1323.19 292.97C1323.19 293.488 1323.01 293.988 1322.67 294.386C1322.04 295.2 1322.64 296.384 1323.65 296.375C1324.66 296.375 1325.26 295.2 1324.64 294.386C1324.3 293.997 1324.12 293.497 1324.12 292.97C1324.12 292.452 1324.3 291.952 1324.64 291.554C1325.27 290.74 1324.66 289.556 1323.65 289.565Z" fill="#9A7AF6"></path>
    </g>
    <g clip-path="url(#clip2_635_47758)">
      <path d="M-54.8516 239.627C-54.8516 103.677 226.978 -10.9035 344.738 82.2765C387.528 116.137 555.298 249.927 598.638 280.277C725.768 369.327 1066.69 378.557 1208.43 318.957C1290.93 284.267 1475.13 153.507 1556.38 234.757" stroke="url(#paint0_linear_635_47758)" stroke-width="0.75" stroke-miterlimit="10"></path>
      <path d="M-53.4922 243.627C-50.6722 110.247 221.898 -6.81347 339.788 84.8965C383.648 119.017 549.078 253.647 593.548 284.107C721.388 371.667 1063.88 373.447 1205.92 315.017C1289.77 280.527 1476.58 159.647 1556.29 242.357" stroke="url(#paint1_linear_635_47758)" stroke-width="0.75" stroke-miterlimit="10"></path>
      <path d="M-52.125 247.637C-46.485 116.817 216.845 -2.75347 334.855 87.5165C379.785 121.887 542.855 257.377 588.465 287.937C716.975 374.037 1061.1 368.347 1203.42 311.077C1288.63 276.787 1478.04 165.777 1556.22 249.957" stroke="url(#paint2_linear_635_47758)" stroke-width="0.75" stroke-miterlimit="10"></path>
      <path d="M-50.7812 251.647C-42.3112 123.387 211.809 1.27653 329.899 90.1465C375.909 124.767 536.609 261.117 583.369 291.767C712.529 376.427 1058.31 363.267 1200.9 307.147C1287.48 273.067 1479.48 171.927 1556.13 257.567" stroke="url(#paint3_linear_635_47758)" stroke-width="0.75" stroke-miterlimit="10"></path>
      <path d="M-49.4219 255.647C-38.1319 129.957 206.808 5.28653 324.948 92.7665C372.038 127.637 530.358 264.847 578.278 295.597C708.048 378.857 1055.54 358.207 1198.38 303.207C1286.32 269.347 1480.92 178.067 1556.04 265.167" stroke="url(#paint4_linear_635_47758)" stroke-width="0.75" stroke-miterlimit="10"></path>
      <path d="M-48.0703 259.657C-33.9503 136.527 201.84 9.26653 320 95.3865C368.18 130.497 524.1 268.587 573.19 299.427C703.55 381.307 1052.78 353.157 1195.87 299.267C1285.19 265.627 1482.37 184.197 1555.95 272.767" stroke="url(#paint5_linear_635_47758)" stroke-width="0.75" stroke-miterlimit="10"></path>
      <path d="M-46.7109 263.667C-29.7709 143.097 196.889 13.2265 315.059 98.0065C364.339 133.357 517.839 272.337 568.099 303.247C699.019 383.777 1050.02 348.117 1193.36 295.317C1284.06 261.907 1483.82 190.327 1555.87 280.357" stroke="url(#paint6_linear_635_47758)" stroke-width="0.75" stroke-miterlimit="10"></path>
      <path d="M-45.3594 267.667C-25.5894 149.677 191.961 17.1565 310.111 100.627C360.491 136.217 511.571 276.087 563.011 307.077C694.471 386.287 1047.28 343.107 1190.84 291.387C1282.92 258.207 1485.26 196.477 1555.78 287.967" stroke="url(#paint7_linear_635_47758)" stroke-width="0.75" stroke-miterlimit="10"></path>
      <path d="M-44 271.677C-21.41 156.247 187.06 21.0665 305.16 103.247C356.65 139.067 505.29 279.837 557.92 310.907C689.9 388.817 1044.55 338.107 1188.33 287.447C1281.8 254.507 1486.71 202.607 1555.7 295.567" stroke="url(#paint8_linear_635_47758)" stroke-width="0.75" stroke-miterlimit="10"></path>
      <path d="M-42.6484 275.677C-17.2284 162.817 182.172 24.9565 300.212 105.867C352.812 141.917 499.012 283.597 552.832 314.727C685.312 391.367 1041.82 333.117 1185.82 283.497C1280.69 250.807 1488.16 208.737 1555.62 303.157" stroke="url(#paint9_linear_635_47758)" stroke-width="0.75" stroke-miterlimit="10"></path>
      <path d="M-41.2891 279.687C-13.0491 169.387 177.301 28.8265 295.271 108.487C348.991 144.767 492.731 287.357 547.741 318.557C680.691 393.947 1039.1 328.147 1183.31 279.557C1279.57 247.127 1489.61 214.877 1555.53 310.757" stroke="url(#paint10_linear_635_47758)" stroke-width="0.75" stroke-miterlimit="10"></path>
      <path d="M-39.9297 283.697C-8.86969 175.957 172.45 32.6765 290.32 111.107C345.17 147.607 486.43 291.137 542.65 322.387C676.07 396.547 1036.39 323.197 1180.79 275.627C1278.45 243.457 1491.05 221.017 1555.44 318.377" stroke="url(#paint11_linear_635_47758)" stroke-width="0.75" stroke-miterlimit="10"></path>
      <path d="M-38.5781 287.697C-4.68813 182.527 167.622 36.4965 285.372 113.727C341.352 150.437 480.132 294.907 537.562 326.207C671.422 399.167 1033.69 318.237 1178.28 271.677C1277.35 239.767 1492.5 227.147 1555.36 325.967" stroke="url(#paint12_linear_635_47758)" stroke-width="0.75" stroke-miterlimit="10"></path>
      <path d="M-37.2188 291.707C-0.508751 189.097 162.801 40.3065 280.421 116.347C337.531 153.267 473.821 298.697 532.471 330.037C666.761 401.807 1030.99 313.317 1175.77 267.737C1276.25 236.107 1493.95 233.277 1555.28 333.567" stroke="url(#paint13_linear_635_47758)" stroke-width="0.75" stroke-miterlimit="10"></path>
      <path d="M-35.8672 295.717C3.67281 195.667 157.993 44.0965 275.473 118.967C333.723 156.097 467.513 302.487 527.373 333.867C662.073 404.477 1028.29 308.397 1173.25 263.797C1275.14 232.447 1495.4 239.417 1555.18 341.167" stroke="url(#paint14_linear_635_47758)" stroke-width="0.75" stroke-miterlimit="10"></path>
      <path d="M-34.5078 299.717C7.85219 202.247 153.202 47.8665 270.532 121.597C329.932 158.917 461.202 306.287 522.292 337.697C657.402 407.167 1025.61 303.497 1170.74 259.867C1274.05 228.807 1496.85 245.567 1555.1 348.777" stroke="url(#paint15_linear_635_47758)" stroke-width="0.75" stroke-miterlimit="10"></path>
      <path d="M-33.1562 303.727C12.0337 208.817 148.434 51.6265 265.584 124.217C326.134 161.737 454.884 310.097 517.204 341.527C652.704 409.877 1022.93 298.607 1168.23 255.927C1272.95 225.157 1498.3 251.697 1555.02 356.377" stroke="url(#paint16_linear_635_47758)" stroke-width="0.75" stroke-miterlimit="10"></path>
      <path d="M-31.7969 307.727C16.2031 215.387 143.663 55.3665 260.633 126.837C322.343 164.537 448.563 313.907 512.113 345.357C647.993 412.597 1020.25 293.737 1165.72 251.987C1271.87 221.527 1499.75 257.837 1554.94 363.977" stroke="url(#paint17_linear_635_47758)" stroke-width="0.75" stroke-miterlimit="10"></path>
      <path d="M-30.4453 311.737C20.3847 221.957 138.915 59.0865 255.685 129.457C318.555 167.337 442.235 317.727 507.015 349.177C643.255 415.327 1017.56 288.857 1163.2 248.037C1270.77 217.887 1501.19 263.967 1554.84 371.567" stroke="url(#paint18_linear_635_47758)" stroke-width="0.75" stroke-miterlimit="10"></path>
      <path d="M-29.0859 315.747C24.5641 228.527 134.164 62.7865 250.744 132.077C314.774 170.137 435.904 321.547 501.934 353.007C638.534 418.097 1014.9 284.007 1160.69 244.097C1269.69 214.267 1502.64 270.097 1554.76 379.167" stroke="url(#paint19_linear_635_47758)" stroke-width="0.75" stroke-miterlimit="10"></path>
      <path d="M-27.7422 319.747C28.7378 235.097 129.428 66.4865 245.788 134.697C310.988 172.917 429.568 325.377 496.838 356.837C633.788 420.867 1012.24 279.167 1158.18 240.167C1268.61 210.657 1504.09 276.247 1554.68 386.777" stroke="url(#paint20_linear_635_47758)" stroke-width="0.75" stroke-miterlimit="10"></path>
      <path d="M-26.375 323.757C32.925 241.667 124.715 70.1565 240.845 137.317C307.225 175.697 423.225 329.217 491.755 360.657C629.055 423.657 1009.58 274.327 1155.68 236.217C1267.54 207.037 1505.54 282.377 1554.6 394.367" stroke="url(#paint21_linear_635_47758)" stroke-width="0.75" stroke-miterlimit="10"></path>
      <path d="M-25.0156 327.767C37.1044 248.247 119.994 73.8265 235.894 139.937C303.444 178.467 416.884 333.067 486.654 364.487C624.284 426.457 1006.9 269.497 1153.15 232.277C1266.44 203.447 1506.98 288.507 1554.5 401.967" stroke="url(#paint22_linear_635_47758)" stroke-width="0.75" stroke-miterlimit="10"></path>
      <path d="M-23.6719 331.767C41.2781 254.817 115.278 77.4765 230.948 142.557C299.688 181.237 410.538 336.927 481.568 368.317C619.528 429.287 1004.25 264.687 1150.64 228.337C1265.37 199.847 1508.43 294.647 1554.42 409.567" stroke="url(#paint23_linear_635_47758)" stroke-width="0.75" stroke-miterlimit="10"></path>
      <path d="M-22.3125 335.777C45.4575 261.387 110.577 81.1065 225.997 145.177C295.927 183.997 404.188 340.787 476.478 372.137C614.758 432.117 1001.6 259.877 1148.13 224.397C1264.3 196.267 1509.88 300.787 1554.34 417.167" stroke="url(#paint24_linear_635_47758)" stroke-width="0.75" stroke-miterlimit="10"></path>
      <path d="M-20.9609 339.777C49.6391 267.957 105.889 84.7265 221.049 147.797C292.169 186.747 397.829 344.657 471.389 375.967C609.989 434.967 998.939 255.087 1145.62 220.457C1263.22 192.687 1511.33 306.917 1554.26 424.767" stroke="url(#paint25_linear_635_47758)" stroke-width="0.75" stroke-miterlimit="10"></path>
      <path d="M-19.6016 343.787C53.8184 274.527 101.208 88.3465 216.098 150.417C288.408 189.487 391.478 348.537 466.288 379.797C605.198 437.837 996.279 250.307 1143.09 216.517C1262.14 189.117 1512.76 313.057 1554.16 432.367" stroke="url(#paint26_linear_635_47758)" stroke-width="0.75" stroke-miterlimit="10"></path>
      <path d="M-18.25 347.797C58 281.107 96.52 91.9465 211.15 153.047C284.66 192.227 385.12 352.427 461.2 383.627C600.42 440.707 993.63 245.527 1140.58 212.577C1261.07 185.557 1514.21 319.197 1554.07 439.967" stroke="url(#paint27_linear_635_47758)" stroke-width="0.75" stroke-miterlimit="10"></path>
      <path d="M-16.8906 351.797C62.1794 287.667 91.8494 95.5365 206.209 155.667C280.929 194.957 378.759 356.327 456.119 387.457C595.639 443.607 990.989 240.767 1138.08 208.647C1260.01 182.017 1515.67 325.337 1554 447.577" stroke="url(#paint28_linear_635_47758)" stroke-width="0.75" stroke-miterlimit="10"></path>
      <path d="M-15.5391 355.807C66.3509 294.247 87.171 99.1165 201.261 158.287C277.191 197.667 372.401 360.227 451.031 391.287C590.851 446.507 988.351 236.007 1135.57 204.707C1258.95 178.477 1517.13 331.477 1553.92 455.177" stroke="url(#paint29_linear_635_47758)" stroke-width="0.75" stroke-miterlimit="10"></path>
      <path d="M-14.1797 359.807C70.5403 300.817 82.5103 102.677 196.31 160.907C273.45 200.377 366.03 364.137 445.93 395.107C586.05 449.417 985.69 231.247 1133.04 200.757C1257.86 174.927 1518.56 337.607 1553.82 462.767" stroke="url(#paint30_linear_635_47758)" stroke-width="0.75" stroke-miterlimit="10"></path>
      <path d="M-12.8281 363.817C74.7119 307.387 77.8419 106.237 191.362 163.527C269.722 203.077 359.662 368.057 440.842 398.937C581.252 452.337 983.052 226.507 1130.53 196.817C1256.8 171.397 1520.01 343.737 1553.73 470.367" stroke="url(#paint31_linear_635_47758)" stroke-width="0.75" stroke-miterlimit="10"></path>
      <path d="M-11.4688 367.827C78.9013 313.957 73.1912 109.777 186.421 166.147C266.001 205.767 353.291 371.987 435.761 402.767C576.461 455.277 980.411 221.777 1128.03 192.887C1255.75 167.887 1521.47 349.887 1553.66 477.977" stroke="url(#paint32_linear_635_47758)" stroke-width="0.75" stroke-miterlimit="10"></path>
      <path d="M-10.1094 371.827C83.0806 320.527 68.5406 113.307 181.471 168.767C262.271 208.447 346.921 375.927 430.671 406.587C571.661 458.217 977.771 217.047 1125.52 188.937C1254.69 164.367 1522.92 356.017 1553.58 485.577" stroke="url(#paint33_linear_635_47758)" stroke-width="0.75" stroke-miterlimit="10"></path>
      <path d="M-8.75781 375.837C87.2522 327.097 63.8922 116.837 176.522 171.387C258.552 211.117 340.542 379.867 425.572 410.417C566.852 461.177 975.122 212.327 1122.99 184.997C1253.61 160.857 1524.35 362.147 1553.48 493.177" stroke="url(#paint34_linear_635_47758)" stroke-width="0.75" stroke-miterlimit="10"></path>
      <path d="M-7.39844 379.847C91.4416 333.677 59.2416 120.357 171.582 174.017C254.842 213.787 334.172 383.827 420.492 414.247C562.062 464.147 972.482 207.617 1120.49 181.057C1252.56 157.367 1525.81 368.287 1553.4 500.777" stroke="url(#paint35_linear_635_47758)" stroke-width="0.75" stroke-miterlimit="10"></path>
      <path d="M-6.04688 383.847C95.6131 340.237 54.5931 123.857 166.623 176.627C251.123 216.427 327.783 387.777 415.393 418.067C557.243 467.117 969.833 202.897 1117.97 177.117C1251.49 153.877 1527.25 374.417 1553.31 508.377" stroke="url(#paint36_linear_635_47758)" stroke-width="0.75" stroke-miterlimit="10"></path>
      <path d="M-4.6875 387.857C99.8025 346.817 49.9525 127.367 161.682 179.257C247.412 219.077 321.412 391.757 410.312 421.907C552.452 470.117 967.202 198.217 1115.47 173.187C1250.44 150.407 1528.71 380.567 1553.24 515.987" stroke="url(#paint37_linear_635_47758)" stroke-width="0.75" stroke-miterlimit="10"></path>
      <path d="M-3.33594 391.857C103.974 353.377 45.3141 130.847 156.734 181.867C243.714 221.697 315.034 395.727 405.214 425.717C547.634 473.087 964.544 193.507 1112.94 169.227C1249.36 146.907 1530.14 386.687 1553.14 523.567" stroke="url(#paint38_linear_635_47758)" stroke-width="0.75" stroke-miterlimit="10"></path>
      <path d="M-1.97656 395.867C108.153 359.957 40.6734 134.327 151.783 184.487C240.003 224.317 308.643 399.707 400.123 429.547C542.833 476.097 961.903 188.817 1110.43 165.287C1248.31 143.447 1531.59 392.817 1553.05 531.167" stroke="url(#paint39_linear_635_47758)" stroke-width="0.75" stroke-miterlimit="10"></path>
      <path d="M-0.625 399.877C112.335 366.527 36.035 137.807 146.835 187.117C236.305 226.937 302.265 403.717 395.035 433.387C538.025 479.117 959.265 184.157 1107.93 161.367C1247.26 140.007 1533.04 398.977 1552.97 538.787" stroke="url(#paint40_linear_635_47758)" stroke-width="0.75" stroke-miterlimit="10"></path>
      <path d="M0.734375 403.877C116.514 373.097 31.4044 141.267 141.894 189.727C232.614 229.517 295.884 407.707 389.944 437.197C533.224 482.127 956.614 179.467 1105.4 157.407C1246.18 136.537 1534.48 405.097 1552.88 546.367" stroke="url(#paint41_linear_635_47758)" stroke-width="0.75" stroke-miterlimit="10"></path>
      <path d="M2.09375 407.887C120.694 379.667 26.7638 144.727 136.944 192.357C228.924 232.117 289.494 411.727 384.854 441.037C528.414 485.167 953.974 174.807 1102.89 153.477C1245.12 133.107 1535.93 411.237 1552.8 553.977" stroke="url(#paint42_linear_635_47758)" stroke-width="0.75" stroke-miterlimit="10"></path>
      <path d="M3.4375 411.897C124.868 386.247 22.1175 148.177 131.988 194.977C225.228 234.697 283.098 415.747 379.758 444.867C523.608 488.197 951.317 170.147 1100.38 149.537C1244.07 129.677 1537.38 417.377 1552.72 561.577" stroke="url(#paint43_linear_635_47758)" stroke-width="0.75" stroke-miterlimit="10"></path>
      <path d="M4.80469 415.897C129.055 392.807 17.4947 151.617 127.055 197.597C221.555 237.257 276.725 419.777 374.685 448.687C518.815 491.237 948.685 165.487 1097.88 145.597C1243.02 126.247 1538.85 423.517 1552.64 569.177" stroke="url(#paint44_linear_635_47758)" stroke-width="0.75" stroke-miterlimit="10"></path>
      <path d="M6.14844 419.907C133.228 399.387 12.8484 155.057 122.088 200.217C217.858 239.807 270.318 423.807 369.568 452.517C513.988 494.287 946.018 160.837 1095.34 141.657C1241.93 122.827 1540.27 429.646 1552.53 576.777" stroke="url(#paint45_linear_635_47758)" stroke-width="0.75" stroke-miterlimit="10"></path>
      <path d="M7.50781 423.907C137.408 405.947 8.21781 158.477 117.148 202.837C214.178 242.347 263.928 427.847 364.488 456.347C509.198 497.347 943.378 156.187 1092.84 137.717C1240.88 119.417 1541.73 435.787 1552.46 584.377" stroke="url(#paint46_linear_635_47758)" stroke-width="0.75" stroke-miterlimit="10"></path>
      <path d="M8.85938 427.917C141.579 412.527 3.57937 161.897 112.199 205.457C210.509 244.877 257.539 431.907 359.399 460.167C504.399 500.407 940.729 151.537 1090.33 133.767C1239.82 116.007 1543.18 441.917 1552.38 591.967" stroke="url(#paint47_linear_635_47758)" stroke-width="0.75" stroke-miterlimit="10"></path>
      <path d="M10.2188 431.927C145.769 419.097 -1.05125 165.317 107.259 208.087C206.839 247.407 251.159 435.977 354.319 464.007C499.609 503.487 938.089 146.917 1087.83 129.837C1238.77 112.627 1544.64 448.057 1552.3 599.577" stroke="url(#paint48_linear_635_47758)" stroke-width="0.75" stroke-miterlimit="10"></path>
      <path d="M11.5703 435.927C149.94 425.667 -5.69968 168.717 102.3 210.697C203.16 249.897 244.75 440.027 349.21 467.827C494.79 506.557 935.41 142.277 1085.29 125.897C1237.68 109.237 1546.06 454.197 1552.19 607.177" stroke="url(#paint49_linear_635_47758)" stroke-width="0.75" stroke-miterlimit="10"></path>
      <path d="M12.9297 439.937C154.13 432.237 -10.3303 172.127 97.3597 213.327C199.5 252.397 238.37 444.117 344.13 471.657C490.01 509.647 932.77 137.657 1082.79 121.957C1236.63 105.857 1547.52 460.337 1552.12 614.777" stroke="url(#paint50_linear_635_47758)" stroke-width="0.75" stroke-miterlimit="10"></path>
      <path d="M14.2812 443.947C158.301 438.817 -14.9787 175.527 92.4113 215.947C195.831 254.877 231.971 448.207 339.041 475.487C485.211 512.737 930.111 133.037 1080.28 118.017C1235.57 102.487 1548.97 466.467 1552.04 622.377" stroke="url(#paint51_linear_635_47758)" stroke-width="0.75" stroke-miterlimit="10"></path>
      <path d="M15.6406 447.947C162.481 445.377 -19.6094 178.907 87.4606 218.557C194.531 258.207 225.531 452.487 333.951 479.307C480.351 516.107 927.481 128.597 1077.77 114.067C1234.53 99.3165 1550.42 472.596 1551.95 629.966" stroke="url(#paint52_linear_635_47758)" stroke-width="0.75" stroke-miterlimit="10"></path>
      <path d="M17 451.957C166.67 451.957 -24.25 182.297 82.52 221.187C188.51 259.797 219.19 456.397 328.86 483.137C475.63 518.927 924.8 123.797 1075.25 110.137C1233.44 95.7765 1551.86 478.747 1551.86 637.577" stroke="url(#paint53_linear_635_47758)" stroke-width="0.75" stroke-miterlimit="10"></path>
    </g>
  </g>
  <defs>
    <linearGradient id="paint0_linear_635_47758" x1="476.378" y1="275.743" x2="1255.31" y2="100.597" gradientUnits="userSpaceOnUse">
      <stop stop-color="#461AC0"></stop>
      <stop offset="1" stop-color="#341490"></stop>
    </linearGradient>
    <linearGradient id="paint1_linear_635_47758" x1="477.26" y1="275.41" x2="1254.15" y2="97.6295" gradientUnits="userSpaceOnUse">
      <stop stop-color="#461AC0"></stop>
      <stop offset="1" stop-color="#341490"></stop>
    </linearGradient>
    <linearGradient id="paint2_linear_635_47758" x1="478.152" y1="275.278" x2="1253.03" y2="94.9535" gradientUnits="userSpaceOnUse">
      <stop stop-color="#461AC0"></stop>
      <stop offset="1" stop-color="#341490"></stop>
    </linearGradient>
    <linearGradient id="paint3_linear_635_47758" x1="479.024" y1="275.366" x2="1251.93" y2="92.6081" gradientUnits="userSpaceOnUse">
      <stop stop-color="#461AC0"></stop>
      <stop offset="1" stop-color="#341490"></stop>
    </linearGradient>
    <linearGradient id="paint4_linear_635_47758" x1="479.906" y1="275.688" x2="1250.87" y2="90.6391" gradientUnits="userSpaceOnUse">
      <stop stop-color="#461AC0"></stop>
      <stop offset="1" stop-color="#341490"></stop>
    </linearGradient>
    <linearGradient id="paint5_linear_635_47758" x1="480.782" y1="276.241" x2="1249.87" y2="89.0511" gradientUnits="userSpaceOnUse">
      <stop stop-color="#461AC0"></stop>
      <stop offset="1" stop-color="#341490"></stop>
    </linearGradient>
    <linearGradient id="paint6_linear_635_47758" x1="481.667" y1="277.027" x2="1248.94" y2="87.8542" gradientUnits="userSpaceOnUse">
      <stop stop-color="#461AC0"></stop>
      <stop offset="1" stop-color="#341490"></stop>
    </linearGradient>
    <linearGradient id="paint7_linear_635_47758" x1="482.544" y1="278.053" x2="1248.09" y2="87.08" gradientUnits="userSpaceOnUse">
      <stop stop-color="#461AC0"></stop>
      <stop offset="1" stop-color="#341490"></stop>
    </linearGradient>
    <linearGradient id="paint8_linear_635_47758" x1="483.428" y1="279.298" x2="1247.32" y2="86.6966" gradientUnits="userSpaceOnUse">
      <stop stop-color="#461AC0"></stop>
      <stop offset="1" stop-color="#341490"></stop>
    </linearGradient>
    <linearGradient id="paint9_linear_635_47758" x1="484.308" y1="280.748" x2="1246.63" y2="86.6848" gradientUnits="userSpaceOnUse">
      <stop stop-color="#461AC0"></stop>
      <stop offset="1" stop-color="#341490"></stop>
    </linearGradient>
    <linearGradient id="paint10_linear_635_47758" x1="485.19" y1="282.397" x2="1246.03" y2="87.0506" gradientUnits="userSpaceOnUse">
      <stop stop-color="#461AC0"></stop>
      <stop offset="1" stop-color="#341490"></stop>
    </linearGradient>
    <linearGradient id="paint11_linear_635_47758" x1="486.071" y1="284.224" x2="1245.5" y2="87.7572" gradientUnits="userSpaceOnUse">
      <stop stop-color="#461AC0"></stop>
      <stop offset="1" stop-color="#341490"></stop>
    </linearGradient>
    <linearGradient id="paint12_linear_635_47758" x1="486.951" y1="286.206" x2="1245.06" y2="88.764" gradientUnits="userSpaceOnUse">
      <stop stop-color="#461AC0"></stop>
      <stop offset="1" stop-color="#341490"></stop>
    </linearGradient>
    <linearGradient id="paint13_linear_635_47758" x1="487.836" y1="288.342" x2="1244.7" y2="90.0746" gradientUnits="userSpaceOnUse">
      <stop stop-color="#461AC0"></stop>
      <stop offset="1" stop-color="#341490"></stop>
    </linearGradient>
    <linearGradient id="paint14_linear_635_47758" x1="488.709" y1="290.612" x2="1244.39" y2="91.6583" gradientUnits="userSpaceOnUse">
      <stop stop-color="#461AC0"></stop>
      <stop offset="1" stop-color="#341490"></stop>
    </linearGradient>
    <linearGradient id="paint15_linear_635_47758" x1="489.594" y1="293.003" x2="1244.17" y2="93.4842" gradientUnits="userSpaceOnUse">
      <stop stop-color="#461AC0"></stop>
      <stop offset="1" stop-color="#341490"></stop>
    </linearGradient>
    <linearGradient id="paint16_linear_635_47758" x1="490.474" y1="295.5" x2="1244.01" y2="95.5323" gradientUnits="userSpaceOnUse">
      <stop stop-color="#461AC0"></stop>
      <stop offset="1" stop-color="#341490"></stop>
    </linearGradient>
    <linearGradient id="paint17_linear_635_47758" x1="491.359" y1="298.091" x2="1243.91" y2="97.7831" gradientUnits="userSpaceOnUse">
      <stop stop-color="#461AC0"></stop>
      <stop offset="1" stop-color="#341490"></stop>
    </linearGradient>
    <linearGradient id="paint18_linear_635_47758" x1="492.232" y1="303.405" x2="1245.23" y2="105.266" gradientUnits="userSpaceOnUse">
      <stop stop-color="#461AC0"></stop>
      <stop offset="1" stop-color="#341490"></stop>
    </linearGradient>
    <linearGradient id="paint19_linear_635_47758" x1="493.117" y1="309.869" x2="1247.1" y2="114.898" gradientUnits="userSpaceOnUse">
      <stop stop-color="#461AC0"></stop>
      <stop offset="1" stop-color="#341490"></stop>
    </linearGradient>
    <linearGradient id="paint20_linear_635_47758" x1="493.989" y1="316.336" x2="1248.9" y2="124.467" gradientUnits="userSpaceOnUse">
      <stop stop-color="#461AC0"></stop>
      <stop offset="1" stop-color="#341490"></stop>
    </linearGradient>
    <linearGradient id="paint21_linear_635_47758" x1="494.881" y1="322.781" x2="1250.64" y2="133.94" gradientUnits="userSpaceOnUse">
      <stop stop-color="#461AC0"></stop>
      <stop offset="1" stop-color="#341490"></stop>
    </linearGradient>
    <linearGradient id="paint22_linear_635_47758" x1="495.759" y1="329.23" x2="1252.3" y2="143.359" gradientUnits="userSpaceOnUse">
      <stop stop-color="#461AC0"></stop>
      <stop offset="1" stop-color="#341490"></stop>
    </linearGradient>
    <linearGradient id="paint23_linear_635_47758" x1="496.632" y1="335.671" x2="1253.9" y2="152.703" gradientUnits="userSpaceOnUse">
      <stop stop-color="#461AC0"></stop>
      <stop offset="1" stop-color="#341490"></stop>
    </linearGradient>
    <linearGradient id="paint24_linear_635_47758" x1="497.516" y1="342.108" x2="1255.46" y2="161.981" gradientUnits="userSpaceOnUse">
      <stop stop-color="#461AC0"></stop>
      <stop offset="1" stop-color="#341490"></stop>
    </linearGradient>
    <linearGradient id="paint25_linear_635_47758" x1="498.396" y1="348.539" x2="1256.95" y2="171.191" gradientUnits="userSpaceOnUse">
      <stop stop-color="#461AC0"></stop>
      <stop offset="1" stop-color="#341490"></stop>
    </linearGradient>
    <linearGradient id="paint26_linear_635_47758" x1="499.274" y1="354.966" x2="1258.38" y2="180.34" gradientUnits="userSpaceOnUse">
      <stop stop-color="#461AC0"></stop>
      <stop offset="1" stop-color="#341490"></stop>
    </linearGradient>
    <linearGradient id="paint27_linear_635_47758" x1="500.151" y1="361.389" x2="1259.77" y2="189.421" gradientUnits="userSpaceOnUse">
      <stop stop-color="#461AC0"></stop>
      <stop offset="1" stop-color="#341490"></stop>
    </linearGradient>
    <linearGradient id="paint28_linear_635_47758" x1="501.039" y1="367.814" x2="1261.12" y2="198.451" gradientUnits="userSpaceOnUse">
      <stop stop-color="#461AC0"></stop>
      <stop offset="1" stop-color="#341490"></stop>
    </linearGradient>
    <linearGradient id="paint29_linear_635_47758" x1="501.919" y1="374.227" x2="1262.42" y2="207.408" gradientUnits="userSpaceOnUse">
      <stop stop-color="#461AC0"></stop>
      <stop offset="1" stop-color="#341490"></stop>
    </linearGradient>
    <linearGradient id="paint30_linear_635_47758" x1="502.797" y1="380.627" x2="1263.66" y2="216.3" gradientUnits="userSpaceOnUse">
      <stop stop-color="#461AC0"></stop>
      <stop offset="1" stop-color="#341490"></stop>
    </linearGradient>
    <linearGradient id="paint31_linear_635_47758" x1="503.674" y1="387.031" x2="1264.87" y2="225.141" gradientUnits="userSpaceOnUse">
      <stop stop-color="#461AC0"></stop>
      <stop offset="1" stop-color="#341490"></stop>
    </linearGradient>
    <linearGradient id="paint32_linear_635_47758" x1="504.562" y1="393.438" x2="1266.05" y2="233.936" gradientUnits="userSpaceOnUse">
      <stop stop-color="#461AC0"></stop>
      <stop offset="1" stop-color="#341490"></stop>
    </linearGradient>
    <linearGradient id="paint33_linear_635_47758" x1="505.446" y1="399.833" x2="1267.18" y2="242.665" gradientUnits="userSpaceOnUse">
      <stop stop-color="#461AC0"></stop>
      <stop offset="1" stop-color="#341490"></stop>
    </linearGradient>
    <linearGradient id="paint34_linear_635_47758" x1="506.32" y1="406.225" x2="1268.26" y2="251.342" gradientUnits="userSpaceOnUse">
      <stop stop-color="#461AC0"></stop>
      <stop offset="1" stop-color="#341490"></stop>
    </linearGradient>
    <linearGradient id="paint35_linear_635_47758" x1="507.204" y1="412.616" x2="1269.33" y2="259.963" gradientUnits="userSpaceOnUse">
      <stop stop-color="#461AC0"></stop>
      <stop offset="1" stop-color="#341490"></stop>
    </linearGradient>
    <linearGradient id="paint36_linear_635_47758" x1="508.081" y1="418.998" x2="1270.35" y2="268.535" gradientUnits="userSpaceOnUse">
      <stop stop-color="#461AC0"></stop>
      <stop offset="1" stop-color="#341490"></stop>
    </linearGradient>
    <linearGradient id="paint37_linear_635_47758" x1="508.969" y1="425.39" x2="1271.35" y2="277.064" gradientUnits="userSpaceOnUse">
      <stop stop-color="#461AC0"></stop>
      <stop offset="1" stop-color="#341490"></stop>
    </linearGradient>
    <linearGradient id="paint38_linear_635_47758" x1="509.843" y1="430.032" x2="1273.29" y2="286.299" gradientUnits="userSpaceOnUse">
      <stop stop-color="#461AC0"></stop>
      <stop offset="1" stop-color="#341490"></stop>
    </linearGradient>
    <linearGradient id="paint39_linear_635_47758" x1="510.724" y1="434.628" x2="1275.1" y2="295.326" gradientUnits="userSpaceOnUse">
      <stop stop-color="#461AC0"></stop>
      <stop offset="1" stop-color="#341490"></stop>
    </linearGradient>
    <linearGradient id="paint40_linear_635_47758" x1="511.604" y1="439.24" x2="1276.79" y2="304.13" gradientUnits="userSpaceOnUse">
      <stop stop-color="#461AC0"></stop>
      <stop offset="1" stop-color="#341490"></stop>
    </linearGradient>
    <linearGradient id="paint41_linear_635_47758" x1="512.485" y1="443.812" x2="1278.33" y2="312.673" gradientUnits="userSpaceOnUse">
      <stop stop-color="#461AC0"></stop>
      <stop offset="1" stop-color="#341490"></stop>
    </linearGradient>
    <linearGradient id="paint42_linear_635_47758" x1="513.37" y1="448.411" x2="1279.77" y2="321.038" gradientUnits="userSpaceOnUse">
      <stop stop-color="#461AC0"></stop>
      <stop offset="1" stop-color="#341490"></stop>
    </linearGradient>
    <linearGradient id="paint43_linear_635_47758" x1="514.242" y1="452.999" x2="1281.1" y2="329.2" gradientUnits="userSpaceOnUse">
      <stop stop-color="#461AC0"></stop>
      <stop offset="1" stop-color="#341490"></stop>
    </linearGradient>
    <linearGradient id="paint44_linear_635_47758" x1="515.135" y1="457.586" x2="1282.36" y2="337.185" gradientUnits="userSpaceOnUse">
      <stop stop-color="#461AC0"></stop>
      <stop offset="1" stop-color="#341490"></stop>
    </linearGradient>
    <linearGradient id="paint45_linear_635_47758" x1="515.997" y1="462.171" x2="1283.49" y2="345.008" gradientUnits="userSpaceOnUse">
      <stop stop-color="#461AC0"></stop>
      <stop offset="1" stop-color="#341490"></stop>
    </linearGradient>
    <linearGradient id="paint46_linear_635_47758" x1="516.885" y1="466.755" x2="1284.58" y2="352.671" gradientUnits="userSpaceOnUse">
      <stop stop-color="#461AC0"></stop>
      <stop offset="1" stop-color="#341490"></stop>
    </linearGradient>
    <linearGradient id="paint47_linear_635_47758" x1="517.765" y1="471.328" x2="1285.6" y2="360.18" gradientUnits="userSpaceOnUse">
      <stop stop-color="#461AC0"></stop>
      <stop offset="1" stop-color="#341490"></stop>
    </linearGradient>
    <linearGradient id="paint48_linear_635_47758" x1="518.65" y1="475.92" x2="1286.55" y2="367.576" gradientUnits="userSpaceOnUse">
      <stop stop-color="#461AC0"></stop>
      <stop offset="1" stop-color="#341490"></stop>
    </linearGradient>
    <linearGradient id="paint49_linear_635_47758" x1="519.52" y1="480.501" x2="1287.43" y2="374.838" gradientUnits="userSpaceOnUse">
      <stop stop-color="#461AC0"></stop>
      <stop offset="1" stop-color="#341490"></stop>
    </linearGradient>
    <linearGradient id="paint50_linear_635_47758" x1="520.408" y1="485.081" x2="1288.29" y2="381.978" gradientUnits="userSpaceOnUse">
      <stop stop-color="#461AC0"></stop>
      <stop offset="1" stop-color="#341490"></stop>
    </linearGradient>
    <linearGradient id="paint51_linear_635_47758" x1="521.288" y1="489.66" x2="1289.09" y2="389.008" gradientUnits="userSpaceOnUse">
      <stop stop-color="#461AC0"></stop>
      <stop offset="1" stop-color="#341490"></stop>
    </linearGradient>
    <linearGradient id="paint52_linear_635_47758" x1="522.169" y1="494.231" x2="1289.84" y2="395.927" gradientUnits="userSpaceOnUse">
      <stop stop-color="#461AC0"></stop>
      <stop offset="1" stop-color="#341490"></stop>
    </linearGradient>
    <linearGradient id="paint53_linear_635_47758" x1="523.05" y1="498.816" x2="1290.55" y2="402.767" gradientUnits="userSpaceOnUse">
      <stop stop-color="#461AC0"></stop>
      <stop offset="1" stop-color="#341490"></stop>
    </linearGradient>
    <clipPath id="clip0_635_47758">
      <rect width="1600" height="488" fill="white" transform="translate(0.78125 0.0565338)"></rect>
    </clipPath>
    <clipPath id="clip1_635_47758">
      <rect width="1600" height="488" fill="white" transform="translate(0.390625)"></rect>
    </clipPath>
    <clipPath id="clip2_635_47758">
      <rect width="1611.87" height="589.52" fill="white" transform="translate(-55.2188 48.0565)"></rect>
    </clipPath>
  </defs>
</svg>
