<svg height="100" viewBox="0 0 100 100" width="100" xmlns="http://www.w3.org/2000/svg"><path d="m50 84.55-.71-.24c-.28-.1-7-2.47-13.65-10.12a49.81 49.81 0 0 1 -9.15-15.82 75.32 75.32 0 0 1 -4.11-25.71v-2.14h2.12c1.91 0 5.47-.63 6.89-2.05 2-2 2.36-5.77 2.36-5.81l.1-1.37 1.28-.49a47.19 47.19 0 0 1 14.87-2.87 49.81 49.81 0 0 1 14.82 2.82l1.31.48.1 1.39s.32 3.72 2.4 5.8c1.32 1.32 5.22 1.89 6.9 2l2.08.08v2.08a75.67 75.67 0 0 1 -4.11 25.78 49.91 49.91 0 0 1 -9.15 15.86c-6.66 7.61-13.35 9.99-13.64 10.08z" fill="#7d7c7c"/><path d="m50 82.07-.71-.24c-.28-.1-7-2.47-13.65-10.12a49.81 49.81 0 0 1 -9.15-15.82 75.32 75.32 0 0 1 -4.11-25.71v-2.18h2.12c1.91 0 5.47-.63 6.89-2.05 2-2 2.36-5.77 2.36-5.81l.1-1.37 1.28-.49a47.19 47.19 0 0 1 14.87-2.83 49.81 49.81 0 0 1 14.82 2.82l1.31.48.1 1.39s.32 3.72 2.4 5.8c1.32 1.32 5.22 1.89 6.9 2l2.08.08v2.08a75.67 75.67 0 0 1 -4.11 25.78 49.91 49.91 0 0 1 -9.15 15.86c-6.66 7.66-13.37 10-13.65 10.14z" fill="#d2d3d3"/><path d="m50 76.57-.82-.37a32.14 32.14 0 0 1 -10.77-8.37c-7-8.17-10.9-19.89-11.2-33.89v-1.8l1.78-.23c2.6-.34 4.64-1.13 5.75-2.24a10.56 10.56 0 0 0 2.5-5.3l.22-1.16 1.12-.37a39.23 39.23 0 0 1 11.46-2 41 41 0 0 1 11.45 2l1.13.36.23 1.17a10.56 10.56 0 0 0 2.52 5.28c1 1 3.09 1.78 5.73 2.14l1.77.24v1.79c-.3 14-4.18 25.8-11.21 34a32.11 32.11 0 0 1 -10.77 8.39zm-18.74-41c.55 12.29 4.05 22.52 10.18 29.65a29 29 0 0 0 8.56 6.94 29 29 0 0 0 8.56-6.95c6.14-7.15 9.64-17.42 10.19-29.76a12.63 12.63 0 0 1 -6.24-3 13.59 13.59 0 0 1 -3.35-6.15 35.75 35.75 0 0 0 -9.16-1.46 34.48 34.48 0 0 0 -9.15 1.48 13.52 13.52 0 0 1 -3.33 6.19 12.65 12.65 0 0 1 -6.26 3.07z" fill="#fff"/><path d="m58.16 43.62v-6.14a8.16 8.16 0 0 0 -16.2 0v6.14h-4.19v13.61h24.46v-13.61zm-4 0h-8.3v-6.14a3.81 3.81 0 0 1 4.17-3.75 4 4 0 0 1 4.17 3.75z" fill="#7d7c7c"/></svg>